<svg xmlns="http://www.w3.org/2000/svg" xmlns:xlink="http://www.w3.org/1999/xlink" width="712.75" height="1000.39" viewBox="0 0 712.75 1000.39">
  <defs>
    <style>
      .a85a2f67-cc1d-4548-9e56-515ab27caa2b {
        fill: #cca500;
      }

      .a18b6737-0afc-4bfd-95e1-b05aa5c5861b, .a1b952a7-5b41-4445-8f3d-358808d4ed8c {
        fill: none;
      }

      .a47c0d64-a6ed-4152-969d-e1e0b1bcf281, .a8bbd895-29c7-45f5-8471-d4f9eb5e2c2d {
        fill: rgba(255,255,255,0.5);
      }

      .ad236a84-0690-43f2-bf91-fc74089caaa4 {
        clip-path: url(#fec2d26b-ef0e-4cdd-a1b2-8b62a47eb6c5);
      }

      .ba1492bd-5090-49eb-94ca-b92c393781f7 {
        fill: #af9d30;
        opacity: 0.04;
      }

      .f509a788-46e8-4577-9b2f-2e22b7c32817 {
        fill: url(#bf0e2425-f089-4027-ac9c-c4d7d16845ff);
      }

      .fcba664a-6e1e-490e-bd1d-b7f53ff2b0e6 {
        fill: url(#f50c3200-19b1-4503-b111-9777bff1cbc3);
      }

      .b3e2f607-83cc-48ff-bd7f-f56b595733d2 {
        fill: url(#ef02ff0c-7eb3-4885-a795-f1b188744abb);
      }

      .ae69310d-73b7-4e5e-942f-de883b09d54a {
        fill: url(#f4346fcf-9622-484e-a1d3-f205df7fecdf);
      }

      .ac434439-70ec-4616-a9cb-60808890a9e7 {
        fill: url(#b8dfaa1b-70cd-4c18-9010-a8c1a137da4a);
      }

      .e4a29d7c-fa48-472d-b87f-870d27446442 {
        fill: url(#f7446c17-cace-4376-a2c3-065ca0486439);
      }

      .bb770df4-6b3a-48f2-a4ba-b97a64350e98 {
        fill: url(#a557a2bb-3cc6-47a1-82c5-54ceafa3e860);
      }

      .b9e8e093-44af-438f-a0b5-3cb8f40893c3 {
        fill: url(#ab44d45a-517f-44c8-8ecb-862704766ff7);
      }

      .be31fb84-a34c-45e3-b44a-d8ff715bb605 {
        filter: url(#b4c02f3b-3b72-41cc-9347-d98de4d25b20);
      }

      .a3c48e96-95f5-4f46-81e8-492effbcbc62 {
        clip-path: url(#bc9fd2b2-c0c1-4431-a719-bf6edbcc14d7);
      }

      .a2c55465-dc2f-4abb-94b6-a02c700bfdd3 {
        opacity: 0.01;
      }

      .af9e5e73-3d9e-43bb-9caa-03822bc448d7 {
        fill: url(#ef95b329-0007-4caa-86f2-be086ce78186);
      }

      .fb6e1ca1-45af-420c-8cb9-792cf317868b {
        fill: url(#f27a024a-cded-4ac8-906e-ff0d775b300e);
      }

      .a904a1e7-7947-4e19-986e-112f78301292 {
        fill: url(#fd810a03-f125-40c3-a00a-9b228bf29c21);
      }

      .a47c0d64-a6ed-4152-969d-e1e0b1bcf281 {
        opacity: 0.3;
      }

      .bdfedc30-9074-4896-b6d2-66600d45e1f4 {
        opacity: 0.2;
      }

      .b824426c-83e6-458b-97b5-e635720ba113 {
        fill: url(#b56beafc-e94f-4d8a-9967-faf5aca23ad3);
      }

      .ee722184-d949-451b-b3a3-e875335100b1 {
        fill: url(#e0742e86-bf15-46b3-b5fe-9264ffc619d6);
      }

      .e962369d-7560-4a33-bae0-09f22d13a933 {
        fill: url(#a156f5a1-bcc1-4eaf-9ecc-726ebbb7c3e6);
      }

      .b8709f4e-cdca-4222-8f6e-d13813ee40c9 {
        fill: url(#af100ded-960b-481e-8751-607ec14e3978);
      }

      .b54dc5f8-644d-4c68-90fb-27fe3f90929b {
        fill: url(#b363c081-0798-4a60-82ac-c690c4a1b469);
      }

      .ae9de505-5ad5-4e39-9a6c-7151186c9d9d {
        fill: url(#a837b5e7-6bff-4145-aa7b-16b1b92b2bb0);
      }

      .a6f59b60-963f-4ae0-be14-b2d0b1680093 {
        fill: url(#becd6777-f606-464c-91f6-87e3145ccc1c);
      }

      .a6ab61ce-08a3-4ded-a3d5-55be50beca09 {
        fill: url(#e112de20-10b4-4443-9c18-2f7fcc87e683);
      }

      .e4e025ac-d122-4a5d-8f10-077277d8517f {
        fill: url(#bd90ad9f-8a7e-4372-9c2c-b5cf175e126a);
      }

      .e48a77cf-5f80-4ad3-9b2a-c3bbc4ab4f93 {
        fill: url(#e87b7813-297b-407d-9c7a-de1277eed5c8);
      }

      .fa8cf3f3-e665-484b-a6de-b2baf065515d {
        fill: url(#ad13b7b8-53cc-4f8f-97dd-b6f17e497ef8);
      }

      .a1b952a7-5b41-4445-8f3d-358808d4ed8c {
        stroke: #000;
        stroke-miterlimit: 10;
      }
    .flip {
    transform-origin: center center;
    transform: scale(-1, 1);
  }</style>
    <clipPath id="fec2d26b-ef0e-4cdd-a1b2-8b62a47eb6c5" transform="translate(0.75 0.19)">
      <path id="a50831cb-84ad-42bd-b99f-5f9d35f0e2e7" class="a85a2f67-cc1d-4548-9e56-515ab27caa2b liner outline" d="M691.35,487.69,649,430.9,374.05,62.19a25,25,0,0,0-4.6-4.6,23,23,0,0,0-32.2,4.6L61.88,431.34l-42,56.35v.3h0l.07,4.52L44,497.89a41.85,41.85,0,0,1,18.8,9.7l206.2,185a39.49,39.49,0,0,1,13.1,29.3V736H429.2l.2-14.7a38,38,0,0,1,12.9-28.7l206.2-185a41.85,41.85,0,0,1,18.8-9.7l24-5.34.07-4.47h0Z"></path>
    </clipPath>
    <linearGradient id="bf0e2425-f089-4027-ac9c-c4d7d16845ff" x1="356.37" y1="486.25" x2="356.37" y2="498.15" gradientUnits="userSpaceOnUse">
      <stop offset="0" stop-opacity="0.07"></stop>
      <stop offset="1" stop-opacity="0"></stop>
    </linearGradient>
    <linearGradient id="f50c3200-19b1-4503-b111-9777bff1cbc3" x1="355.63" y1="525.41" x2="355.63" y2="518.72" gradientTransform="translate(0.75 -37.73)" gradientUnits="userSpaceOnUse">
      <stop offset="0" stop-opacity="0.1"></stop>
      <stop offset="0.82" stop-opacity="0"></stop>
      <stop offset="0.83" stop-opacity="0.01"></stop>
      <stop offset="1" stop-opacity="0"></stop>
    </linearGradient>
    <linearGradient id="ef02ff0c-7eb3-4885-a795-f1b188744abb" x1="141.04" y1="810.5" x2="187.68" y2="777.19" gradientTransform="matrix(1, 0, 0, -1, 0, 1024.09)" gradientUnits="userSpaceOnUse">
      <stop offset="0" stop-opacity="0.1"></stop>
      <stop offset="0.29" stop-opacity="0.08"></stop>
      <stop offset="0.55" stop-opacity="0"></stop>
    </linearGradient>
    <linearGradient id="f4346fcf-9622-484e-a1d3-f205df7fecdf" x1="684.03" y1="667.87" x2="642.39" y2="636.22" gradientTransform="matrix(1, 0, 0, -1, 0, 1024.09)" gradientUnits="userSpaceOnUse">
      <stop offset="0.14" stop-opacity="0.07"></stop>
      <stop offset="0.38" stop-opacity="0.04"></stop>
      <stop offset="0.8" stop-opacity="0"></stop>
    </linearGradient>
    <linearGradient id="b8dfaa1b-70cd-4c18-9010-a8c1a137da4a" x1="15.47" y1="501.01" x2="54.68" y2="438.77" gradientUnits="userSpaceOnUse">
      <stop offset="0" stop-opacity="0"></stop>
      <stop offset="0.33" stop-opacity="0.18"></stop>
      <stop offset="1" stop-opacity="0.07"></stop>
    </linearGradient>
    <linearGradient id="f7446c17-cace-4376-a2c3-065ca0486439" x1="-611.68" y1="499.04" x2="-580.18" y2="449.03" gradientTransform="matrix(-1, 0, 0, 1, 84.71, 0.19)" gradientUnits="userSpaceOnUse">
      <stop offset="0" stop-opacity="0"></stop>
      <stop offset="0.33" stop-opacity="0.16"></stop>
      <stop offset="1" stop-opacity="0.08"></stop>
    </linearGradient>
    <linearGradient id="a557a2bb-3cc6-47a1-82c5-54ceafa3e860" x1="337.9" y1="56.81" x2="371.12" y2="56.95" gradientUnits="userSpaceOnUse">
      <stop offset="0" stop-opacity="0.1"></stop>
      <stop offset="0.07" stop-opacity="0.13"></stop>
      <stop offset="0.5" stop-opacity="0.18"></stop>
      <stop offset="0.95" stop-opacity="0.05"></stop>
      <stop offset="1" stop-opacity="0"></stop>
    </linearGradient>
    <linearGradient id="ab44d45a-517f-44c8-8ecb-862704766ff7" x1="-0.5" y1="524.29" x2="711.8" y2="524.29" gradientTransform="matrix(1, 0, 0, -1, 0, 1024.09)" gradientUnits="userSpaceOnUse">
      <stop offset="0" stop-opacity="0.1"></stop>
      <stop offset="1" stop-opacity="0"></stop>
    </linearGradient>
    <filter id="b4c02f3b-3b72-41cc-9347-d98de4d25b20" name="cover-dropshadow">
      <feDropShadow dx="0" dy="-1" flood-color="rgba(0, 0, 0, 0.25)" stdDeviation="10"></feDropShadow>
    </filter>
    <clipPath id="bc9fd2b2-c0c1-4431-a719-bf6edbcc14d7" transform="translate(0.75 0.19)">
      <path id="a91ebbd4-ebdf-47b7-b760-d55d3e2d5d64" class="a18b6737-0afc-4bfd-95e1-b05aa5c5861b cover outline" d="M667.3,497.89a41.85,41.85,0,0,0-18.8,9.7l-206.2,185a38,38,0,0,0-12.9,28.7l-.2,14.7H282.1v-14.1a39.49,39.49,0,0,0-13.1-29.3l-206.2-185a41.85,41.85,0,0,0-18.8-9.7l-42.57-9.6H-.5v511.5H711.8V488.29h-.91Z"></path>
    </clipPath>
    <linearGradient id="ef95b329-0007-4caa-86f2-be086ce78186" x1="357.32" y1="702.15" x2="356.19" y2="896.07" gradientUnits="userSpaceOnUse">
      <stop offset="0" stop-color="#fff" stop-opacity="0.03"></stop>
      <stop offset="1" stop-color="#fff" stop-opacity="0"></stop>
    </linearGradient>
    <linearGradient id="f27a024a-cded-4ac8-906e-ff0d775b300e" x1="231.14" y1="796.16" x2="132.03" y2="753.57" gradientUnits="userSpaceOnUse">
      <stop offset="0" stop-opacity="0.03"></stop>
      <stop offset="1" stop-opacity="0"></stop>
    </linearGradient>
    <linearGradient id="fd810a03-f125-40c3-a00a-9b228bf29c21" x1="-139.98" y1="796.16" x2="-239.1" y2="753.57" gradientTransform="matrix(-1, 0, 0, 1, 340.07, 0)" xlink:href="#f27a024a-cded-4ac8-906e-ff0d775b300e"></linearGradient>
    <linearGradient id="b56beafc-e94f-4d8a-9967-faf5aca23ad3" x1="1905.8" y1="280.83" x2="1883.81" y2="280.83" gradientTransform="translate(1904.55 1024.28) rotate(180)" gradientUnits="userSpaceOnUse">
      <stop offset="0" stop-color="#fff" stop-opacity="0.09"></stop>
      <stop offset="1" stop-color="#fff" stop-opacity="0"></stop>
    </linearGradient>
    <linearGradient id="e0742e86-bf15-46b3-b5fe-9264ffc619d6" x1="206.78" y1="777.58" x2="111.17" y2="871.42" gradientUnits="userSpaceOnUse">
      <stop offset="0" stop-opacity="0"></stop>
      <stop offset="0.33" stop-opacity="0.08"></stop>
      <stop offset="1" stop-opacity="0.12"></stop>
    </linearGradient>
    <linearGradient id="a156f5a1-bcc1-4eaf-9ecc-726ebbb7c3e6" x1="-363.57" y1="810.39" x2="-402.16" y2="935.03" gradientTransform="matrix(-1, 0, 0, 1, 218.6, 0)" gradientUnits="userSpaceOnUse">
      <stop offset="0" stop-opacity="0"></stop>
      <stop offset="1" stop-opacity="0.06"></stop>
    </linearGradient>
    <linearGradient id="af100ded-960b-481e-8751-607ec14e3978" x1="355.55" y1="24.16" x2="355.55" y2="192.26" gradientTransform="matrix(1, 0, 0, -1, 0.75, 1024.28)" xlink:href="#ab44d45a-517f-44c8-8ecb-862704766ff7"></linearGradient>
    <linearGradient id="b363c081-0798-4a60-82ac-c690c4a1b469" x1="119.74" y1="845.93" x2="121.77" y2="847.95" gradientUnits="userSpaceOnUse">
      <stop offset="0" stop-color="#fff" stop-opacity="0.1"></stop>
      <stop offset="0.68" stop-color="#fff" stop-opacity="0"></stop>
    </linearGradient>
    <linearGradient id="a837b5e7-6bff-4145-aa7b-16b1b92b2bb0" x1="591.77" y1="845.41" x2="586.87" y2="850.31" gradientUnits="userSpaceOnUse">
      <stop offset="0" stop-color="#fff" stop-opacity="0.07"></stop>
      <stop offset="0.68" stop-color="#fff" stop-opacity="0"></stop>
    </linearGradient>
    <linearGradient id="becd6777-f606-464c-91f6-87e3145ccc1c" x1="41.9" y1="55.66" x2="21.52" y2="111.78" gradientTransform="matrix(1, 0, 0, -1, 0, 1024.09)" gradientUnits="userSpaceOnUse">
      <stop offset="0" stop-opacity="0.04"></stop>
      <stop offset="1" stop-opacity="0"></stop>
    </linearGradient>
    <linearGradient id="e112de20-10b4-4443-9c18-2f7fcc87e683" x1="-71.04" y1="67.04" x2="-98.78" y2="143.41" gradientTransform="translate(582.69 1024.09) rotate(180)" xlink:href="#becd6777-f606-464c-91f6-87e3145ccc1c"></linearGradient>
    <linearGradient id="bd90ad9f-8a7e-4372-9c2c-b5cf175e126a" x1="355.55" y1="-1051.41" x2="355.55" y2="-1035.03" gradientTransform="translate(0 1697.32) scale(1 0.67)" gradientUnits="userSpaceOnUse">
      <stop offset="0" stop-opacity="0"></stop>
      <stop offset="1" stop-opacity="0.15"></stop>
    </linearGradient>
    <linearGradient id="e87b7813-297b-407d-9c7a-de1277eed5c8" x1="713.26" y1="280.05" x2="691.27" y2="280.05" gradientTransform="matrix(1, 0, 0, -1, 0, 1024.09)" xlink:href="#bf0e2425-f089-4027-ac9c-c4d7d16845ff"></linearGradient>
    <linearGradient id="ad13b7b8-53cc-4f8f-97dd-b6f17e497ef8" x1="158.09" y1="592.74" x2="154.71" y2="596.57" gradientUnits="userSpaceOnUse">
      <stop offset="0" stop-color="#fff" stop-opacity="0.06"></stop>
      <stop offset="0.34" stop-color="#fff" stop-opacity="0"></stop>
    </linearGradient>
  <pattern id="cfill_texture" patternUnits="userSpaceOnUse" patternContentUnits="userSpaceOnUse" width="1000" height="1000" preserveAspectRatio="xMidYMid slice"><image id="cfill_texture_img" width="1000" height="1000" preserveAspectRatio="xMidYMid slice"></image></pattern></defs>
  
  
  
  
  
  <g id="b99bc313-287a-48dd-9053-b9b52baeabff" class="cover">
    <g id="a3d33fe5-c9d0-4aaf-a709-a7469f8a472e" class="be31fb84-a34c-45e3-b44a-d8ff715bb605 dropshadow">
      <path class="a8bbd895-29c7-45f5-8471-d4f9eb5e2c2d" d="M667.3,497.89a41.85,41.85,0,0,0-18.8,9.7l-206.2,185a38,38,0,0,0-12.9,28.7l-.2,14.7H282.1v-14.1a39.49,39.49,0,0,0-13.1-29.3l-206.2-185a41.85,41.85,0,0,0-18.8-9.7l-42.57-9.6H-.5v511.5H711.8V488.29h-.91Z" transform="translate(0.75 0.19)"></path>
    </g>
    <g id="fe9a28ef-49a6-491c-8c2f-3323768c1694" class="mask group">
      <g class="a3c48e96-95f5-4f46-81e8-492effbcbc62">
        <rect id="bbb71448-a7d0-4978-acfb-cd18b560b2f6" class="a8bbd895-29c7-45f5-8471-d4f9eb5e2c2d cfill" y="488.98" width="712.75" height="510.71" style="fill: rgb(19, 56, 24);"></rect>
        <path id="b4860a9b-be16-4c70-82fa-cbd72466c2e9" class="b9e8e093-44af-438f-a0b5-3cb8f40893c3 shade" d="M681.2,407.89,390.5,17.29a43.51,43.51,0,0,0-60.8-8.9,41.73,41.73,0,0,0-8.9,8.9L30.1,407.89a65.45,65.45,0,0,0-9.3,17.5L-.5,488.29v511.5H711.8V488.29l-21.3-62.9A66.81,66.81,0,0,0,681.2,407.89Z" transform="translate(0.75 0.19)"></path>
      </g>
    </g>
    <g id="bf543963-9a68-42d4-9c7b-2dc4d15d6300" class="Flap Overlap">
      <path class="a2c55465-dc2f-4abb-94b6-a02c700bfdd3" d="M378.75,1000.17l332.79-.24s-53.36-4-67.87-12.52c-11.42-6.69-166.4-171.44-183.6-191.54-13-15.18-31.35-30.94-31.35-59.88H282.1c0,28.94-18.35,44.7-31.35,59.88C233.55,816,78.57,980.72,67.15,987.41,52.64,995.9-.72,999.93-.72,999.93l332.79.24v0h46.68Z" transform="translate(0.75 0.19)"></path>
    </g>
    <g id="be282919-b731-49c4-a6bf-35f461d5f2ae" class="Highlights">
      <path class="af9e5e73-3d9e-43bb-9caa-03822bc448d7" d="M686.54,947.3a78,78,0,0,0-14.3-19.9L496.34,751.6a54.27,54.27,0,0,0-38.4-15.9H253.24a54.27,54.27,0,0,0-38.4,15.9L39,927.4a76.34,76.34,0,0,0-14.3,19.9L-.56,997.7v1.8h712.3v-1.8Z" transform="translate(0.75 0.19)"></path>
    </g>
    <path class="fb6e1ca1-45af-420c-8cb9-792cf317868b" d="M269,692.59a39.49,39.49,0,0,1,13.1,29.3V736H253.22c-14.4,0-27.95,5.19-38.15,15.39L58,908.48,125.43,564Z" transform="translate(0.75 0.19)"></path>
    <path class="a904a1e7-7947-4e19-986e-112f78301292" d="M585.76,564l67.46,344.48-157.1-157.1C485.92,741.18,472.37,736,458,736H429.09v-14.1a39.49,39.49,0,0,1,13.1-29.3Z" transform="translate(0.75 0.19)"></path>
    <g id="b1437489-854a-4202-8a09-4deba5c3c4ee" class="logo">
      <path class="a18b6737-0afc-4bfd-95e1-b05aa5c5861b" d="M124.41,637.82a1.69,1.69,0,0,0,.16-1.78,3.13,3.13,0,0,0-.41-.49,2,2,0,0,0-2.68-.15,1.79,1.79,0,0,0-.41,1.94,2.71,2.71,0,0,0,.48.55A1.89,1.89,0,0,0,124.41,637.82Z" transform="translate(0.75 0.19)"></path>
      <path class="a18b6737-0afc-4bfd-95e1-b05aa5c5861b" d="M174.32,663.85l.09-.12a.68.68,0,0,0,.13-.18l-.15.18A.52.52,0,0,0,174.32,663.85Z" transform="translate(0.75 0.19)"></path>
      <path class="a18b6737-0afc-4bfd-95e1-b05aa5c5861b" d="M175.1,662.38a.43.43,0,0,0,.11-.3,4.36,4.36,0,0,0-.38-.33l-.47.53C174.5,662.4,174.85,662.65,175.1,662.38Z" transform="translate(0.75 0.19)"></path>
      <path class="a18b6737-0afc-4bfd-95e1-b05aa5c5861b" d="M168.22,656.16a15,15,0,0,0-4.12,0,1,1,0,0,1-.94,1.11.73.73,0,0,1-.62-.27,1.56,1.56,0,0,0-.32,1.54,2.7,2.7,0,0,0,.4.45C164.18,660.43,166.4,657.13,168.22,656.16Z" transform="translate(0.75 0.19)"></path>
      <path class="a18b6737-0afc-4bfd-95e1-b05aa5c5861b" d="M115.82,629.78l1.67,1.48a.63.63,0,0,0,.76-.14.83.83,0,0,0,.16-.59l-1.82-1.62Z" transform="translate(0.75 0.19)"></path>
      <path class="a18b6737-0afc-4bfd-95e1-b05aa5c5861b" d="M174.94,662.81a.81.81,0,0,1-.33-.14s0,0,0,0c.17.12.46.27.66,0l0,0A.49.49,0,0,1,174.94,662.81Z" transform="translate(0.75 0.19)"></path>
      <path class="a18b6737-0afc-4bfd-95e1-b05aa5c5861b" d="M112.15,611.88l3.62-1.16A.63.63,0,0,0,116,610h0a1.33,1.33,0,0,0,0-.19.91.91,0,0,0-.18-.21c-1.24-1.2-4.63-1-5.81.21a1.26,1.26,0,0,0-.46,1.28A2.78,2.78,0,0,0,112.15,611.88Z" transform="translate(0.75 0.19)"></path>
      <path class="a18b6737-0afc-4bfd-95e1-b05aa5c5861b" d="M152,633.7a18.7,18.7,0,0,0-7.27,3.51c2.53.1,7.8-1.59,9.39-2.91a.7.7,0,0,0,.33-.54C154,633.37,153.18,633.43,152,633.7Z" transform="translate(0.75 0.19)"></path>
      <path class="a18b6737-0afc-4bfd-95e1-b05aa5c5861b" d="M124.78,619.14c.31-.35.53-.64.45-1l0-.06a3.17,3.17,0,0,0-3.06-.68c-.78.21-3,1-3,1.06a1.21,1.21,0,0,0-.36,1.35,1.31,1.31,0,0,0,.2.21C120.5,621.42,123.7,620.35,124.78,619.14Z" transform="translate(0.75 0.19)"></path>
      <path class="a18b6737-0afc-4bfd-95e1-b05aa5c5861b" d="M132.07,623.86a4.9,4.9,0,0,0-3.7.85,5.05,5.05,0,0,0-.47.4,7.37,7.37,0,0,0,3.43.4,2.62,2.62,0,0,0,1.59-.53.68.68,0,0,0,.2-.55l-.07-.09A1.93,1.93,0,0,0,132.07,623.86Z" transform="translate(0.75 0.19)"></path>
      <path class="a18b6737-0afc-4bfd-95e1-b05aa5c5861b" d="M152.7,641.87c-1.26-.36-2.49.46-3.53,1.38l-.19.19a7.54,7.54,0,0,0,2.37.35,3.13,3.13,0,0,0,2.13-.72.73.73,0,0,0,.21-.7h0A1.7,1.7,0,0,0,152.7,641.87Z" transform="translate(0.75 0.19)"></path>
      <path class="a18b6737-0afc-4bfd-95e1-b05aa5c5861b" d="M160.92,649.48a7.26,7.26,0,0,0-2.9-.23s-1,.16-1.4.2a1,1,0,0,1-1,.94.78.78,0,0,1-.5-.17,1.85,1.85,0,0,0-.26,1.73,2.9,2.9,0,0,0,.45.5C157,653.78,159.18,650.44,160.92,649.48Z" transform="translate(0.75 0.19)"></path>
      <path class="a18b6737-0afc-4bfd-95e1-b05aa5c5861b" d="M107.43,603.66l0,0a6.17,6.17,0,0,0,6.24-1l.33-.3a3.73,3.73,0,0,0,.75-3.31h0a43.83,43.83,0,0,0-9.73,2.52,5.28,5.28,0,0,0,1,1.21A10.42,10.42,0,0,0,107.43,603.66Z" transform="translate(0.75 0.19)"></path>
      <path class="a18b6737-0afc-4bfd-95e1-b05aa5c5861b" d="M174.47,664.2h0l-.25-.22.09-.12-.29-.25.19-.25a.64.64,0,0,0,.21-.42.6.6,0,0,0-.11-.12l-.24-.22-.62.69-.31-.27.1-.11-.29-.26,1.56-1.76.61.55a1.78,1.78,0,0,1,.42.49.43.43,0,0,1,.05.16.83.83,0,0,1,.15.21.59.59,0,0,1-.12.69.52.52,0,0,1-.48.19.76.76,0,0,1-.33-.14.55.55,0,0,1,.15.44.66.66,0,0,1-.15.36l-.23.26a.73.73,0,0,0-.05.09,1.84,1.84,0,0,0,1.21-.61,1.77,1.77,0,0,0,.46-1.33,1.88,1.88,0,0,0-.13-.59,2.07,2.07,0,0,0-.28-.32,1.84,1.84,0,0,0-2.6.16,1.78,1.78,0,0,0-.47,1.33,2,2,0,0,0,.13.59,2.07,2.07,0,0,0,.28.32A1.78,1.78,0,0,0,174.47,664.2Z" transform="translate(0.75 0.19)"></path>
      <path class="a18b6737-0afc-4bfd-95e1-b05aa5c5861b" d="M174.49,664.49a1.91,1.91,0,0,1-.64-.06,1.85,1.85,0,0,0,2.5-1.26,2.47,2.47,0,0,1-.38.61A2.07,2.07,0,0,1,174.49,664.49Z" transform="translate(0.75 0.19)"></path>
      <path class="a18b6737-0afc-4bfd-95e1-b05aa5c5861b" d="M174.44,660.59a2.14,2.14,0,0,1,.63.06,2,2,0,0,0-.81-.14,1.8,1.8,0,0,0-1.27.62,1.84,1.84,0,0,0-.42.82,2.12,2.12,0,0,1,.4-.65A2,2,0,0,1,174.44,660.59Z" transform="translate(0.75 0.19)"></path>
      <path class="a18b6737-0afc-4bfd-95e1-b05aa5c5861b" d="M113.73,597.62l.28,0h0a7.06,7.06,0,0,0-1.92-1.81c-2.86-1.79-5.75-1.92-10.26-.55-4.16,1.26-5.57,3.4-5.62,3.48a1.57,1.57,0,0,0-.42,1.52,1.07,1.07,0,0,0,.2.22,2.12,2.12,0,0,0,.53.35c1.43.68,6.81-1,6.81-1l0-.13a2.78,2.78,0,0,1,.86-2.16l.11-.11h0s0,.11,0,.19a4.16,4.16,0,0,0-.14.58l.25-.3.11-.11h0s0,.1,0,.19a4.1,4.1,0,0,0-.18,1.47l.09,0C107.29,598.43,110.64,597.43,113.73,597.62Z" transform="translate(0.75 0.19)"></path>
      <path class="a47c0d64-a6ed-4152-969d-e1e0b1bcf281" d="M135.36,630.09a9.59,9.59,0,0,0,2.61-1,1.1,1.1,0,0,1,.25-.94,1.05,1.05,0,0,1,1.49-.14.57.57,0,0,1,.11.11.93.93,0,0,0-.31-.48,1.06,1.06,0,0,0-1.49.14,1.13,1.13,0,0,0-.25.94,9.46,9.46,0,0,1-2.61,1c-2,.35-5,.21-6.91-1.43a5.67,5.67,0,0,1-1.07-1.15,4.73,4.73,0,0,0,1.27,1.52C130.36,630.3,133.31,630.44,135.36,630.09Z" transform="translate(0.75 0.19)"></path>
      <path class="a47c0d64-a6ed-4152-969d-e1e0b1bcf281" d="M126.34,624.88l.13-.18c1.84-2.12,5.66-2.93,7.55-1.12a3.38,3.38,0,0,1,.31.37,2.29,2.29,0,0,0-.51-.74c-1.89-1.81-5.71-1-7.55,1.13l-.13.17a9.14,9.14,0,0,1-3.91-2.12l-.18,0A9.37,9.37,0,0,0,126.34,624.88Z" transform="translate(0.75 0.19)"></path>
      <path class="a47c0d64-a6ed-4152-969d-e1e0b1bcf281" d="M138.13,636.85a17.4,17.4,0,0,0,4.44.39,15.9,15.9,0,0,1,3.36-2.58c4.14-2.55,8.14-3.2,9.51-1.43l.06.09a1.79,1.79,0,0,0-.26-.46c-1.37-1.77-5.36-1.12-9.51,1.43a15.9,15.9,0,0,0-3.36,2.58,17.4,17.4,0,0,1-4.44-.39,4.22,4.22,0,0,1-1.23-.67,2.19,2.19,0,0,1-.3-.33,1.54,1.54,0,0,0,.5.69A4.1,4.1,0,0,0,138.13,636.85Z" transform="translate(0.75 0.19)"></path>
      <path class="a47c0d64-a6ed-4152-969d-e1e0b1bcf281" d="M141.5,632.75a.69.69,0,0,0-.18-.35,9.5,9.5,0,0,1-1.69-1.59C140.06,631.8,141.05,632.29,141.5,632.75Z" transform="translate(0.75 0.19)"></path>
      <path class="a47c0d64-a6ed-4152-969d-e1e0b1bcf281" d="M143.73,642.13a7.73,7.73,0,0,0,3.53,1.25,2.42,2.42,0,0,1,.22-.28,5.72,5.72,0,0,1,5.75-2.17,3.23,3.23,0,0,1,1.31.77,3.18,3.18,0,0,1,.3.36,2.23,2.23,0,0,0-.49-.73,3.2,3.2,0,0,0-1.32-.76,5.69,5.69,0,0,0-5.75,2.16c-.07.07-.17.22-.22.28a7.73,7.73,0,0,1-3.53-1.25,4.38,4.38,0,0,1-.94-.94A3.28,3.28,0,0,0,143.73,642.13Z" transform="translate(0.75 0.19)"></path>
      <path class="a47c0d64-a6ed-4152-969d-e1e0b1bcf281" d="M124.92,616.77a2.69,2.69,0,0,1,1.78,1.15,1.37,1.37,0,0,0-.16-.32,2.72,2.72,0,0,0-1.82-1.2l-.37,0a4.16,4.16,0,0,1-.63.32C124,616.71,124.46,616.68,124.92,616.77Z" transform="translate(0.75 0.19)"></path>
      <path class="a47c0d64-a6ed-4152-969d-e1e0b1bcf281" d="M108.68,609a6.09,6.09,0,0,1,8-.1,1.94,1.94,0,0,1,.26.31,2.1,2.1,0,0,0-.46-.68,6.09,6.09,0,0,0-8,.1,2.12,2.12,0,0,0-.2,2.73A2.08,2.08,0,0,1,108.68,609Z" transform="translate(0.75 0.19)"></path>
      <path class="a47c0d64-a6ed-4152-969d-e1e0b1bcf281" d="M125.88,625.82l-.23-.06a2.89,2.89,0,0,0,.47,1.77A2.6,2.6,0,0,1,125.88,625.82Z" transform="translate(0.75 0.19)"></path>
      <path class="a47c0d64-a6ed-4152-969d-e1e0b1bcf281" d="M138.57,630.37a3.53,3.53,0,0,0,.33.71,2.49,2.49,0,0,1-.22-.75Z" transform="translate(0.75 0.19)"></path>
      <path class="a47c0d64-a6ed-4152-969d-e1e0b1bcf281" d="M122.31,615.9A1.26,1.26,0,0,0,123,615c0-.2.28,0,.41.16l.85.81c.06-.05.09-.1.05-.14l-1.1-1c-.13-.12-.35-.36-.4-.16a1.31,1.31,0,0,1-.64.93c-2,.29-7.56.59-9-.93l-.13-.15a1.08,1.08,0,0,0,.33.52C114.76,616.49,120.32,616.19,122.31,615.9Z" transform="translate(0.75 0.19)"></path>
      <path class="a47c0d64-a6ed-4152-969d-e1e0b1bcf281" d="M139.79,632.41c0-.08-.17-.22-.3-.39-.76-.07-5.51,0-4.91,2.84a2.71,2.71,0,0,0,.29.61c-.05-.12-.08-.21-.09-.24C134.13,632.22,139.68,632.32,139.79,632.41Z" transform="translate(0.75 0.19)"></path>
      <path class="a47c0d64-a6ed-4152-969d-e1e0b1bcf281" d="M117.8,619l-.26.08a2,2,0,0,0,.35,1.27A2,2,0,0,1,117.8,619Z" transform="translate(0.75 0.19)"></path>
      <path class="a47c0d64-a6ed-4152-969d-e1e0b1bcf281" d="M118.08,610.66l.88.86.08,0s-.06-.11-.06-.11l-1.1-1.08a.56.56,0,0,0-.59,0,1.53,1.53,0,0,1-.07.47C117.56,610.6,117.84,610.47,118.08,610.66Z" transform="translate(0.75 0.19)"></path>
      <path class="a47c0d64-a6ed-4152-969d-e1e0b1bcf281" d="M111.73,613.51l.16-.26a2.73,2.73,0,0,1-.4,0,1.67,1.67,0,0,0,.29,1.32A1.43,1.43,0,0,1,111.73,613.51Z" transform="translate(0.75 0.19)"></path>
      <path class="a47c0d64-a6ed-4152-969d-e1e0b1bcf281" d="M117.51,617.1c-2.52.85-5.55,1.85-7.66,2.46l.5.28c2.41-.7,5.82-1.85,8.39-2.72Z" transform="translate(0.75 0.19)"></path>
      <path class="a47c0d64-a6ed-4152-969d-e1e0b1bcf281" d="M113.93,598l.28,0h.12c-.09-.14-.18-.26-.27-.38h0l-.28,0c-3.09-.19-6.44.81-9.31,1.81l-.09,0a.77.77,0,0,0,.07.27l0,.13.17-.07C107.49,598.8,110.84,597.8,113.93,598Z" transform="translate(0.75 0.19)"></path>
      <path class="a47c0d64-a6ed-4152-969d-e1e0b1bcf281" d="M124.61,638.18a1.8,1.8,0,0,0,0-2.14,1.69,1.69,0,0,1-.16,1.78,1.89,1.89,0,0,1-2.86.07,2.71,2.71,0,0,1-.48-.55,2.47,2.47,0,0,0,.68.92A1.89,1.89,0,0,0,124.61,638.18Z" transform="translate(0.75 0.19)"></path>
      <path class="a47c0d64-a6ed-4152-969d-e1e0b1bcf281" d="M130.46,642.89a2.29,2.29,0,0,1,.32.43,3,3,0,0,0-.51-.8l-1.19-1.33a.76.76,0,0,1-.08-.11,1.38,1.38,0,0,0,.28.48Z" transform="translate(0.75 0.19)"></path>
      <path class="a47c0d64-a6ed-4152-969d-e1e0b1bcf281" d="M120.8,634.79a2.86,2.86,0,0,1,4,0,3.44,3.44,0,0,1,.62.75,3.46,3.46,0,0,0-.81-1.12,2.87,2.87,0,0,0-4,0,2.71,2.71,0,0,0-.31,3.36A2.68,2.68,0,0,1,120.8,634.79Z" transform="translate(0.75 0.19)"></path>
      <path class="a47c0d64-a6ed-4152-969d-e1e0b1bcf281" d="M105,601.58a5.38,5.38,0,0,0,1.25,1.58,10.42,10.42,0,0,0,1.35.87l.05,0a6.17,6.17,0,0,0,6.24-1,3.52,3.52,0,0,0,.33-.31,3.72,3.72,0,0,0,.67-3.57l0-.11h-.09a3.73,3.73,0,0,1-.75,3.31l-.33.3a6.17,6.17,0,0,1-6.24,1l0,0a10.42,10.42,0,0,1-1.35-.87,5.28,5.28,0,0,1-1-1.21h0Z" transform="translate(0.75 0.19)"></path>
      <path class="a47c0d64-a6ed-4152-969d-e1e0b1bcf281" d="M172.57,662a1.84,1.84,0,0,1,.42-.82,1.8,1.8,0,0,1,1.27-.62,2,2,0,0,1,.81.14,2,2,0,0,1,.91.48,2,2,0,0,1,.36.41,2.18,2.18,0,0,0-.55-.78,2.14,2.14,0,0,0-3.56,1.72,2,2,0,0,0,.35,1.06,2.49,2.49,0,0,1-.16-.69A2.24,2.24,0,0,1,172.57,662Z" transform="translate(0.75 0.19)"></path>
      <path class="a47c0d64-a6ed-4152-969d-e1e0b1bcf281" d="M119.2,630l.1.12a1,1,0,0,0-.3-.48l-2.69-2.4-3.49,3.92.29.26,3.4-3.81Z" transform="translate(0.75 0.19)"></path>
      <path class="a47c0d64-a6ed-4152-969d-e1e0b1bcf281" d="M117.49,631.26l-1.67-1.48-.1.11,2,1.74a.64.64,0,0,0,.76-.14.72.72,0,0,0,0-.9l-.06-.06a.83.83,0,0,1-.16.59A.63.63,0,0,1,117.49,631.26Z" transform="translate(0.75 0.19)"></path>
      <path class="a47c0d64-a6ed-4152-969d-e1e0b1bcf281" d="M141.73,638.2h-.44a2.77,2.77,0,0,0,.07,2.92A2.82,2.82,0,0,1,141.73,638.2Z" transform="translate(0.75 0.19)"></path>
      <path class="a47c0d64-a6ed-4152-969d-e1e0b1bcf281" d="M157.09,648.31h.19l.31,0a6.41,6.41,0,0,1,5.2,1.25l.13.15a1,1,0,0,0-.33-.52,6.41,6.41,0,0,0-5.2-1.25l-.31,0h-.19c-1.69.08-5.87.6-8-1.24a5.84,5.84,0,0,1-1-1,4.12,4.12,0,0,0,1.17,1.39C151.21,648.91,155.39,648.39,157.09,648.31Z" transform="translate(0.75 0.19)"></path>
      <path class="a47c0d64-a6ed-4152-969d-e1e0b1bcf281" d="M104.33,597.44h0l-.11.11a2.78,2.78,0,0,0-.86,2.16l0,.13s-5.38,1.7-6.81,1a2.12,2.12,0,0,1-.53-.35,1.07,1.07,0,0,1-.2-.22,1.4,1.4,0,0,0,.4.59,2.12,2.12,0,0,0,.53.35c1.43.68,6.81-1,6.81-1l0-.13a2.57,2.57,0,0,1,.62-1.86,4.16,4.16,0,0,1,.14-.58C104.34,597.55,104.38,597.42,104.33,597.44Z" transform="translate(0.75 0.19)"></path>
      <path class="a47c0d64-a6ed-4152-969d-e1e0b1bcf281" d="M170.85,661.18l.2-.48a8.49,8.49,0,0,1-5.75.09,1.34,1.34,0,0,1-.4.11A7.93,7.93,0,0,0,170.85,661.18Z" transform="translate(0.75 0.19)"></path>
      <path class="a47c0d64-a6ed-4152-969d-e1e0b1bcf281" d="M159.15,654.82a19.82,19.82,0,0,0,4.36.38l1.29-.14h0l.22,0c1.94-.06,3.71-.17,5.22,1.15a2,2,0,0,1,.36.35,1.48,1.48,0,0,0-.56-.72c-1.51-1.32-3.28-1.21-5.21-1.15l-.23,0h0l-1.29.14a19.86,19.86,0,0,1-4.36-.38,4.34,4.34,0,0,1-1.06-.32,1.87,1.87,0,0,1-.46.09A10.36,10.36,0,0,0,159.15,654.82Z" transform="translate(0.75 0.19)"></path>
      <path class="a47c0d64-a6ed-4152-969d-e1e0b1bcf281" d="M128.35,640c.77-.87,2.15-.16,3,.61a4.5,4.5,0,0,1,.63.84,4.17,4.17,0,0,0-.83-1.2c-.81-.78-2.2-1.49-3-.62a1.48,1.48,0,0,0,0,1.82A1.42,1.42,0,0,1,128.35,640Z" transform="translate(0.75 0.19)"></path>
      <rect class="a47c0d64-a6ed-4152-969d-e1e0b1bcf281" x="132.73" y="647.77" width="4.25" height="0.39" transform="translate(-437.85 317.71) rotate(-48.29)"></rect>
      <path class="a47c0d64-a6ed-4152-969d-e1e0b1bcf281" d="M130,644.62a.49.49,0,0,0,.07-.66l-.11-.13a.58.58,0,0,1-.16.42c-.37.41-1.21,0-1.66-.42a3.61,3.61,0,0,1-.65-.8,3.8,3.8,0,0,0,.84,1.17C128.81,644.61,129.65,645,130,644.62Z" transform="translate(0.75 0.19)"></path>
      <polygon class="a47c0d64-a6ed-4152-969d-e1e0b1bcf281" points="139.78 647.88 139.88 647.77 135.87 644.2 135.3 644.85 135.59 645.11 136.07 644.57 139.78 647.88"></polygon>
      <path class="a47c0d64-a6ed-4152-969d-e1e0b1bcf281" d="M127,641.82c0-.13-.06-.26-.08-.38l-.91.11a5.47,5.47,0,0,0,.66,1.79,5.45,5.45,0,0,1-.46-1.42Z" transform="translate(0.75 0.19)"></path>
      <path class="a47c0d64-a6ed-4152-969d-e1e0b1bcf281" d="M131.37,642.52h.07a6.06,6.06,0,0,0-.35-.73A5.16,5.16,0,0,1,131.37,642.52Z" transform="translate(0.75 0.19)"></path>
      <path class="a47c0d64-a6ed-4152-969d-e1e0b1bcf281" d="M160.92,649.48c-1.74,1-3.94,4.3-5.58,3a2.9,2.9,0,0,1-.45-.5,2.35,2.35,0,0,0,.64.87c1.71,1.38,4-2.31,5.8-3.08A1.11,1.11,0,0,0,160.92,649.48Z" transform="translate(0.75 0.19)"></path>
      <path class="a47c0d64-a6ed-4152-969d-e1e0b1bcf281" d="M125.23,618.15c.08.35-.14.64-.45,1-1.08,1.21-4.28,2.28-5.83.89a1.31,1.31,0,0,1-.2-.21,1.53,1.53,0,0,0,.39.58c1.56,1.39,4.76.32,5.84-.89C125.39,619.05,125.65,618.68,125.23,618.15Z" transform="translate(0.75 0.19)"></path>
      <path class="a47c0d64-a6ed-4152-969d-e1e0b1bcf281" d="M153.48,643.07a3.13,3.13,0,0,1-2.13.72,7.54,7.54,0,0,1-2.37-.35l-.21.22a7.22,7.22,0,0,0,2.78.5,3.11,3.11,0,0,0,2.12-.72.71.71,0,0,0,0-1.07A.73.73,0,0,1,153.48,643.07Z" transform="translate(0.75 0.19)"></path>
      <path class="a47c0d64-a6ed-4152-969d-e1e0b1bcf281" d="M131.33,625.51a7.37,7.37,0,0,1-3.43-.4,2.49,2.49,0,0,0-.21.23,7.7,7.7,0,0,0,3.83.54,2.63,2.63,0,0,0,1.6-.53.63.63,0,0,0,0-.92.68.68,0,0,1-.2.55A2.62,2.62,0,0,1,131.33,625.51Z" transform="translate(0.75 0.19)"></path>
      <path class="a47c0d64-a6ed-4152-969d-e1e0b1bcf281" d="M116.23,610.36h0a1.23,1.23,0,0,0-.25-.56,1.33,1.33,0,0,1,0,.19h0a.63.63,0,0,1-.27.72l-3.62,1.16a2.78,2.78,0,0,1-2.62-.8c.27.88,1.77,1.44,2.82,1.17l3.62-1.16C116.15,611,116.3,610.78,116.23,610.36Z" transform="translate(0.75 0.19)"></path>
      <path class="a47c0d64-a6ed-4152-969d-e1e0b1bcf281" d="M176.07,661.66a1.88,1.88,0,0,1,.13.59,1.77,1.77,0,0,1-.46,1.33,1.84,1.84,0,0,1-1.21.61l0,0,0,0h0a1.78,1.78,0,0,1-1.34-.46,2.07,2.07,0,0,1-.28-.32,1.76,1.76,0,0,0,.48.69,1.87,1.87,0,0,0,.52.32,1.91,1.91,0,0,0,.64.06,2.07,2.07,0,0,0,1.48-.71,2.47,2.47,0,0,0,.38-.61,2,2,0,0,0,.05-.55A1.76,1.76,0,0,0,176.07,661.66Z" transform="translate(0.75 0.19)"></path>
      <path class="a47c0d64-a6ed-4152-969d-e1e0b1bcf281" d="M154.1,634.3c-1.59,1.32-6.86,3-9.39,2.91-.23.19-.34.32-.31.32,2.24.4,8.19-1.44,9.9-2.86.25-.21.41-.43.3-.68a.76.76,0,0,0-.17-.23A.7.7,0,0,1,154.1,634.3Z" transform="translate(0.75 0.19)"></path>
      <path class="a47c0d64-a6ed-4152-969d-e1e0b1bcf281" d="M175.21,662.08a.43.43,0,0,1-.11.3c-.25.27-.6,0-.74-.1l-.1.11.28.24a.73.73,0,0,0,.09.08s0,0,0,0a.81.81,0,0,0,.33.14.49.49,0,0,0,.37-.09.46.46,0,0,0,.1-.34A.86.86,0,0,0,175.21,662.08Z" transform="translate(0.75 0.19)"></path>
      <path class="a47c0d64-a6ed-4152-969d-e1e0b1bcf281" d="M175.32,661.81a2.3,2.3,0,0,1,.27.28.43.43,0,0,0-.05-.16,1.78,1.78,0,0,0-.42-.49l-.61-.55L173,662.65l.29.26,1.47-1.65Z" transform="translate(0.75 0.19)"></path>
      <path class="a47c0d64-a6ed-4152-969d-e1e0b1bcf281" d="M104,602l0,0a.05.05,0,0,1,0,0Z" transform="translate(0.75 0.19)"></path>
      <path class="a47c0d64-a6ed-4152-969d-e1e0b1bcf281" d="M94.74,598.29c.59-1.16,3-3.37,6.34-4.41q7.2-2.25,12.37,1.74a3.88,3.88,0,0,1,.31.26,9,9,0,0,1,1.76,2.16l0,.05h0a4.6,4.6,0,0,1,1.34.74h0c.41.23.42.21.27.06l-.27-.26a4.6,4.6,0,0,0-1.54-.92h-.06l0-.05a9.27,9.27,0,0,0-1.75-2.16l-.32-.26q-5.16-4-12.37-1.74c-3.33,1-5.75,3.25-6.34,4.41a2.52,2.52,0,0,0,.06,2.65A2.54,2.54,0,0,1,94.74,598.29Z" transform="translate(0.75 0.19)"></path>
      <path class="a47c0d64-a6ed-4152-969d-e1e0b1bcf281" d="M174.39,663.73l.15-.18a.42.42,0,0,0,.06-.37.78.78,0,0,0-.18-.24.64.64,0,0,1-.21.42l-.19.25.29.25h0A.52.52,0,0,1,174.39,663.73Z" transform="translate(0.75 0.19)"></path>
      <path class="a47c0d64-a6ed-4152-969d-e1e0b1bcf281" d="M168.84,656.34a4.19,4.19,0,0,0-.62-.18c-1.82,1-4,4.27-5.6,2.85a2.7,2.7,0,0,1-.4-.45,2.11,2.11,0,0,0,.59.82C164.5,660.91,167,656.94,168.84,656.34Z" transform="translate(0.75 0.19)"></path>
      <path class="a47c0d64-a6ed-4152-969d-e1e0b1bcf281" d="M146.76,644.36l-.24-.05a2.86,2.86,0,0,0,.47,1.81A2.61,2.61,0,0,1,146.76,644.36Z" transform="translate(0.75 0.19)"></path>
      <path class="a47c0d64-a6ed-4152-969d-e1e0b1bcf281" d="M161.85,656.1h-.5a2.42,2.42,0,0,0,0,2.78A2.39,2.39,0,0,1,161.85,656.1Z" transform="translate(0.75 0.19)"></path>
      <path class="a47c0d64-a6ed-4152-969d-e1e0b1bcf281" d="M154.28,649.51h-.46a2.53,2.53,0,0,0,.13,2.74A2.41,2.41,0,0,1,154.28,649.51Z" transform="translate(0.75 0.19)"></path>
      <path class="bdfedc30-9074-4896-b6d2-66600d45e1f4" d="M96.26,598.76c0-.08,1.46-2.22,5.62-3.48,4.51-1.37,7.4-1.24,10.26.55a7.06,7.06,0,0,1,1.92,1.81h.07a7.15,7.15,0,0,0-2.19-2.19c-2.85-1.79-5.75-1.92-10.26-.55-4.16,1.26-5.57,3.4-5.62,3.48-.7.89-.51,1.52-.22,1.89A1.57,1.57,0,0,1,96.26,598.76Z" transform="translate(0.75 0.19)"></path>
      <path class="bdfedc30-9074-4896-b6d2-66600d45e1f4" d="M148.11,647.44a5.52,5.52,0,0,1-1.12-1.32,5.23,5.23,0,0,0,1.32,1.69,8.59,8.59,0,0,0,5.51,1.69,2.88,2.88,0,0,1,.26-.35C152.37,649.11,149.88,649,148.11,647.44Z" transform="translate(0.75 0.19)"></path>
      <path class="bdfedc30-9074-4896-b6d2-66600d45e1f4" d="M170.85,661.18l-.32.78a9.08,9.08,0,0,1-8.18-2,4.45,4.45,0,0,1-1-1.11,4.24,4.24,0,0,0,1.2,1.48,9.09,9.09,0,0,0,8.17,2l.52-1.27C171.11,661.11,171,661.14,170.85,661.18Z" transform="translate(0.75 0.19)"></path>
      <path class="bdfedc30-9074-4896-b6d2-66600d45e1f4" d="M130.78,643.32a1.37,1.37,0,0,1-.13,1.44c-.49.61-1.75.89-3-.24a4.88,4.88,0,0,1-1-1.18,5,5,0,0,0,1.15,1.55c1.28,1.13,2.54.85,3,.24A1.5,1.5,0,0,0,130.78,643.32Z" transform="translate(0.75 0.19)"></path>
      <path class="bdfedc30-9074-4896-b6d2-66600d45e1f4" d="M127.12,641.81H127a4.72,4.72,0,0,0,.51,1.21A4.55,4.55,0,0,1,127.12,641.81Z" transform="translate(0.75 0.19)"></path>
      <path class="bdfedc30-9074-4896-b6d2-66600d45e1f4" d="M125.42,635.58a2.59,2.59,0,0,1-.31,2.86,2.87,2.87,0,0,1-4.16.13,3.56,3.56,0,0,1-.66-.79,3.44,3.44,0,0,0,.86,1.16,2.87,2.87,0,0,0,4.16-.13A2.7,2.7,0,0,0,125.42,635.58Z" transform="translate(0.75 0.19)"></path>
      <path class="bdfedc30-9074-4896-b6d2-66600d45e1f4" d="M131.44,642.52c.05.13.09.26.13.37l.93,0a4.3,4.3,0,0,0-.55-1.39,4.25,4.25,0,0,1,.35,1Z" transform="translate(0.75 0.19)"></path>
      <path class="bdfedc30-9074-4896-b6d2-66600d45e1f4" d="M137.08,637.19a3.62,3.62,0,0,1-2.21-1.72,3.74,3.74,0,0,0,2.41,2.09,21.32,21.32,0,0,0,4,.65,3,3,0,0,1,.24-.38A18.19,18.19,0,0,1,137.08,637.19Z" transform="translate(0.75 0.19)"></path>
      <path class="bdfedc30-9074-4896-b6d2-66600d45e1f4" d="M104.51,598c0-.09.07-.21,0-.19h0l-.11.11-.25.3a2.44,2.44,0,0,0,0,1.17l0,.12.08,0A4.1,4.1,0,0,1,104.51,598Z" transform="translate(0.75 0.19)"></path>
      <path class="bdfedc30-9074-4896-b6d2-66600d45e1f4" d="M162.54,657a.73.73,0,0,0,.62.27,1,1,0,0,0,.94-1.11,15,15,0,0,1,4.12,0,2.69,2.69,0,0,1,.43-.19,11.23,11.23,0,0,0-4.74-.16,1,1,0,0,1-.95,1.11.73.73,0,0,1-.62-.27,1.51,1.51,0,0,0-.12,1.91A1.56,1.56,0,0,1,162.54,657Z" transform="translate(0.75 0.19)"></path>
      <path class="bdfedc30-9074-4896-b6d2-66600d45e1f4" d="M174.81,663.84a.66.66,0,0,0,.15-.36.55.55,0,0,0-.15-.44.76.76,0,0,0,.33.14.52.52,0,0,0,.48-.19.59.59,0,0,0,.12-.69.83.83,0,0,0-.15-.21.59.59,0,0,1-.17.53l-.11.1,0,0c-.2.23-.49.08-.66,0a.52.52,0,0,1,.13.4.66.66,0,0,1-.15.36l-.07.08a.68.68,0,0,1-.13.18l-.09.12v0h0l-.09.12.25.22h.06a.73.73,0,0,1,.05-.09Z" transform="translate(0.75 0.19)"></path>
      <path class="bdfedc30-9074-4896-b6d2-66600d45e1f4" d="M128.21,641.58l-.08-.12a1.72,1.72,0,0,0,.28.49l1.57,1.88a.34.34,0,0,0-.09-.24Z" transform="translate(0.75 0.19)"></path>
      <path class="bdfedc30-9074-4896-b6d2-66600d45e1f4" d="M128.87,640.22c-.22.2-.09.58.13.86a.43.43,0,0,1,.07-.49c.25-.24,1,0,1.35.37a3.39,3.39,0,0,1,.67.83,3.82,3.82,0,0,0-.86-1.2C129.83,640.24,129.12,640,128.87,640.22Z" transform="translate(0.75 0.19)"></path>
      <path class="bdfedc30-9074-4896-b6d2-66600d45e1f4" d="M116.59,628.91l1.82,1.62a.44.44,0,0,0-.13-.31l-1.89-1.68-.87,1,.3.26Z" transform="translate(0.75 0.19)"></path>
      <path class="bdfedc30-9074-4896-b6d2-66600d45e1f4" d="M114.8,599.06a2.68,2.68,0,0,0-.07-.27l0-.11h-.12a44.53,44.53,0,0,0-9.73,2.52h0l.21.37a43.83,43.83,0,0,1,9.73-2.52Z" transform="translate(0.75 0.19)"></path>
      <path class="bdfedc30-9074-4896-b6d2-66600d45e1f4" d="M142.16,642.06a4.46,4.46,0,0,1-.8-.93,4,4,0,0,0,1,1.3,9.14,9.14,0,0,0,4.17,1.88,1.87,1.87,0,0,1,0-.32A9.29,9.29,0,0,1,142.16,642.06Z" transform="translate(0.75 0.19)"></path>
      <path class="bdfedc30-9074-4896-b6d2-66600d45e1f4" d="M121.48,635.4a2,2,0,0,1,2.68.15,3.13,3.13,0,0,1,.41.49,2.66,2.66,0,0,0-.61-.86,2,2,0,0,0-2.67-.15,1.78,1.78,0,0,0-.22,2.31A1.79,1.79,0,0,1,121.48,635.4Z" transform="translate(0.75 0.19)"></path>
      <path class="bdfedc30-9074-4896-b6d2-66600d45e1f4" d="M176.7,662.6a2,2,0,0,0-.36-1.06,2,2,0,0,1,.16.69,2.09,2.09,0,0,1-.15.94,1.84,1.84,0,0,1-2.5,1.26,2.17,2.17,0,0,1-1.27-.89,2.14,2.14,0,0,0,4.12-.94Z" transform="translate(0.75 0.19)"></path>
      <path class="bdfedc30-9074-4896-b6d2-66600d45e1f4" d="M115.24,604.28a4.75,4.75,0,0,0,.81-5.19l-.1-.25.26,0a4.75,4.75,0,0,1,.94.33c.41.23.42.21.27.06l-.27-.26-.21-.18a5.36,5.36,0,0,0-.93-.32l-.26,0,.1.25a4.75,4.75,0,0,1-.81,5.19c-2,2.28-5.4,2.32-7.87,1l-.23-.13-.19-.11A8.45,8.45,0,0,1,104,602a8.12,8.12,0,0,0,3,3.05l.2.11.22.12C109.83,606.59,113.21,606.56,115.24,604.28Z" transform="translate(0.75 0.19)"></path>
      <path class="bdfedc30-9074-4896-b6d2-66600d45e1f4" d="M138.9,631.08a5.08,5.08,0,0,0,.59.94l.11,0A10.84,10.84,0,0,1,138.9,631.08Z" transform="translate(0.75 0.19)"></path>
      <path class="bdfedc30-9074-4896-b6d2-66600d45e1f4" d="M175.21,662.08V662c0-.23-.58-.64-.58-.64l-.57.64.28.25h0l.47-.53A4.36,4.36,0,0,1,175.21,662.08Z" transform="translate(0.75 0.19)"></path>
      <path class="bdfedc30-9074-4896-b6d2-66600d45e1f4" d="M103.62,601.66c-2.41.66-5.72,1.57-7.89,0a3.83,3.83,0,0,1-.48-.38,3.42,3.42,0,0,1-.65-.75,3.3,3.3,0,0,0,.84,1.12,4.88,4.88,0,0,0,.49.38c2.17,1.52,5.47.62,7.88,0l.16,0a3.24,3.24,0,0,1-.2-.36Z" transform="translate(0.75 0.19)"></path>
      <path class="bdfedc30-9074-4896-b6d2-66600d45e1f4" d="M117,610.36l.27-.1a1.84,1.84,0,0,0-.32-1A1.65,1.65,0,0,1,117,610.36Z" transform="translate(0.75 0.19)"></path>
      <path class="bdfedc30-9074-4896-b6d2-66600d45e1f4" d="M136.85,630.49c-.55.15-1.68.37-1.72.37a10,10,0,0,1-5.92-.7l-.38-.19a7.27,7.27,0,0,1-2-1.46h0a5.26,5.26,0,0,1-.77-1,4.78,4.78,0,0,0,1,1.35h0a7.38,7.38,0,0,0,1.94,1.46l.39.19a10,10,0,0,0,5.92.7s1.17-.22,1.72-.37,1.14-.35,1.52-.49a3,3,0,0,1-.09-.41C138.09,630.1,137.54,630.31,136.85,630.49Z" transform="translate(0.75 0.19)"></path>
      <path class="bdfedc30-9074-4896-b6d2-66600d45e1f4" d="M119.3,630.13a1.69,1.69,0,0,1-.37,1.58,1.52,1.52,0,0,1-1.92.34l-2.09-1.86-1.41,1.59-.4-.35-.09.11.68.61,1.42-1.59,2.09,1.86a1.52,1.52,0,0,0,1.92-.34A1.57,1.57,0,0,0,119.3,630.13Z" transform="translate(0.75 0.19)"></path>
      <path class="bdfedc30-9074-4896-b6d2-66600d45e1f4" d="M111.69,612.88a3.54,3.54,0,0,1-2.87-.84,3.58,3.58,0,0,1-.54-.65,3.05,3.05,0,0,0,.74,1,3.69,3.69,0,0,0,2.47.89.94.94,0,0,1,0-.16Z" transform="translate(0.75 0.19)"></path>
      <path class="bdfedc30-9074-4896-b6d2-66600d45e1f4" d="M134,625.79c-.81,1-4,1.26-7,0a1.34,1.34,0,0,0,.21,1.36,1.15,1.15,0,0,1,0-1c3,1.27,6.2,1,7,0a1.74,1.74,0,0,0,.15-2.21A1.74,1.74,0,0,1,134,625.79Z" transform="translate(0.75 0.19)"></path>
      <path class="bdfedc30-9074-4896-b6d2-66600d45e1f4" d="M139.59,629.1a1.39,1.39,0,0,1-.37.28,2.47,2.47,0,0,0,.41,1.43,2.67,2.67,0,0,1-.22-1.06,1.29,1.29,0,0,0,.38-.28,1.09,1.09,0,0,0,0-1.39A1.11,1.11,0,0,1,139.59,629.1Z" transform="translate(0.75 0.19)"></path>
      <path class="bdfedc30-9074-4896-b6d2-66600d45e1f4" d="M112.17,615.1a3.71,3.71,0,0,1-.39-.48,2.7,2.7,0,0,0,.59.85c1.38,1.4,3.36,1.59,5.14,1.63l1-.35C116.52,616.71,113.88,616.83,112.17,615.1Z" transform="translate(0.75 0.19)"></path>
      <path class="bdfedc30-9074-4896-b6d2-66600d45e1f4" d="M153.76,635.87a31.28,31.28,0,0,1-10.46,2.3c-.16,0-.2.12-.37.32-.76.93-.8,1.65-.34,2.33a1.88,1.88,0,0,1,.54-2c.17-.2.2-.31.37-.32a31.34,31.34,0,0,0,10.46-2.3c1-.48,2.42-1.65,1.54-2.92C155.91,634.44,154.65,635.44,153.76,635.87Z" transform="translate(0.75 0.19)"></path>
      <path class="bdfedc30-9074-4896-b6d2-66600d45e1f4" d="M155.31,653.75h0a6,6,0,0,1-1.36-1.52,5.55,5.55,0,0,0,1.56,1.89h0a9.07,9.07,0,0,0,5.84,2c.09-.12.19-.25.3-.37A9.21,9.21,0,0,1,155.31,653.75Z" transform="translate(0.75 0.19)"></path>
      <path class="bdfedc30-9074-4896-b6d2-66600d45e1f4" d="M140.6,633.26a5.73,5.73,0,0,0-3.67.45s-1.28.74-.53,1.77c-.26-.83.72-1.39.73-1.4a5.7,5.7,0,0,1,3.66-.45c.65.26,1.22-.33.73-.86l0,0C141.55,633.15,141.1,633.46,140.6,633.26Z" transform="translate(0.75 0.19)"></path>
      <path class="bdfedc30-9074-4896-b6d2-66600d45e1f4" d="M119.11,618.47s2.23-.85,3-1.06a3.17,3.17,0,0,1,3.06.68l0,.06a.92.92,0,0,0-.25-.43,3.17,3.17,0,0,0-3.06-.68c-.78.21-3,1-3,1.06a1.25,1.25,0,0,0-.16,1.72A1.21,1.21,0,0,1,119.11,618.47Z" transform="translate(0.75 0.19)"></path>
      <path class="bdfedc30-9074-4896-b6d2-66600d45e1f4" d="M144.71,637.21A18.7,18.7,0,0,1,152,633.7c1.2-.27,2-.33,2.45.06a.39.39,0,0,0,0-.14c-.29-.64-1.22-.6-2.61-.29a17.09,17.09,0,0,0-7.59,3.83A3.83,3.83,0,0,0,144.71,637.21Z" transform="translate(0.75 0.19)"></path>
      <path class="bdfedc30-9074-4896-b6d2-66600d45e1f4" d="M174.11,662.45l-.24-.22-.62.69h0l-.1.11.31.27.62-.69.24.22a.6.6,0,0,1,.11.12.53.53,0,0,0,0-.13A1.15,1.15,0,0,0,174.11,662.45Z" transform="translate(0.75 0.19)"></path>
      <path class="bdfedc30-9074-4896-b6d2-66600d45e1f4" d="M120.36,622a4.14,4.14,0,0,1-2.12-1.16,2.94,2.94,0,0,1-.35-.44,2.64,2.64,0,0,0,.55.81,4.23,4.23,0,0,0,2.11,1.16,10.08,10.08,0,0,0,5.1,3.44,1,1,0,0,1,0-.3A10,10,0,0,1,120.36,622Z" transform="translate(0.75 0.19)"></path>
      <path class="bdfedc30-9074-4896-b6d2-66600d45e1f4" d="M126.13,620a6.94,6.94,0,0,1-4.28,2l.38.35a7.06,7.06,0,0,0,4.1-2,1.94,1.94,0,0,0,.41-2.42l0-.05A2,2,0,0,1,126.13,620Z" transform="translate(0.75 0.19)"></path>
      <path class="bdfedc30-9074-4896-b6d2-66600d45e1f4" d="M110,609.8c1.18-1.16,4.57-1.41,5.81-.21a.91.91,0,0,1,.18.21,1.4,1.4,0,0,0-.38-.58c-1.23-1.2-4.63-1-5.8.21a1.15,1.15,0,0,0-.27,1.65A1.26,1.26,0,0,1,110,609.8Z" transform="translate(0.75 0.19)"></path>
      <path class="bdfedc30-9074-4896-b6d2-66600d45e1f4" d="M124.35,616.35c.1-.07.16-.13.11-.18l-.25-.23a3.29,3.29,0,0,1-.69.36C123.69,616.33,124,616.32,124.35,616.35Z" transform="translate(0.75 0.19)"></path>
      <polygon class="bdfedc30-9074-4896-b6d2-66600d45e1f4" points="139.31 648.42 137.64 646.93 134.72 650.21 134.34 649.87 134.24 649.98 134.92 650.58 137.84 647.3 139.5 648.78 140.08 648.14 139.78 647.88 139.31 648.42"></polygon>
      <path class="bdfedc30-9074-4896-b6d2-66600d45e1f4" d="M149.17,643.25c1-.92,2.27-1.74,3.53-1.38a1.7,1.7,0,0,1,1,.5h0a.82.82,0,0,0-.19-.37,1.75,1.75,0,0,0-1-.5c-1.25-.36-2.49.46-3.53,1.38l-.4.41.41.15Z" transform="translate(0.75 0.19)"></path>
      <rect class="bdfedc30-9074-4896-b6d2-66600d45e1f4" x="135.41" y="644.67" width="0.14" height="1.84" transform="translate(-435.87 317.38) rotate(-48.29)"></rect>
      <path class="bdfedc30-9074-4896-b6d2-66600d45e1f4" d="M155.15,650.22a.78.78,0,0,0,.5.17,1,1,0,0,0,1-.94c.45,0,1.4-.2,1.4-.2a7.26,7.26,0,0,1,2.9.23l.22-.11c-.46-.48-1.78-.6-3.32-.49,0,0-.94.16-1.4.2a1,1,0,0,1-1,.94.73.73,0,0,1-.51-.17,1.8,1.8,0,0,0-.06,2.1A1.85,1.85,0,0,1,155.15,650.22Z" transform="translate(0.75 0.19)"></path>
      <path class="bdfedc30-9074-4896-b6d2-66600d45e1f4" d="M173.19,661.5a1.84,1.84,0,0,1,2.6-.16,2.07,2.07,0,0,1,.28.32,1.76,1.76,0,0,0-.48-.69,1.87,1.87,0,0,0-.52-.32,2.14,2.14,0,0,0-.63-.06,2,2,0,0,0-1.47.71,2.12,2.12,0,0,0-.4.65,1.73,1.73,0,0,0,0,.51,1.79,1.79,0,0,0,.33,1,2,2,0,0,1-.13-.59A1.78,1.78,0,0,1,173.19,661.5Z" transform="translate(0.75 0.19)"></path>
      <path class="bdfedc30-9074-4896-b6d2-66600d45e1f4" d="M170.61,656.88c-.06.12-.23.25-.38.17-.7-.35-2.14,1-2.44,1.3-.76.75-2.21,2.08-3.09,2.18.2.1.4.18.6.26a10.8,10.8,0,0,0,2.69-2.07c.29-.29,1.74-1.65,2.44-1.3a.29.29,0,0,0,.37-.17.63.63,0,0,0-.16-.72A.54.54,0,0,1,170.61,656.88Z" transform="translate(0.75 0.19)"></path>
      <path class="bdfedc30-9074-4896-b6d2-66600d45e1f4" d="M111.59,620.53l-1.24-.69-.3.09,1.74,1,5.75-1.82a1.86,1.86,0,0,1,.06-.45Z" transform="translate(0.75 0.19)"></path>
      <path class="bdfedc30-9074-4896-b6d2-66600d45e1f4" d="M154.47,643.92c-.82.93-3.4,1.62-6.51.22a1.15,1.15,0,0,0,0,1.54,1.06,1.06,0,0,1,.22-1.17c3.11,1.4,5.69.71,6.51-.23a1.73,1.73,0,0,0,.17-2.22A1.74,1.74,0,0,1,154.47,643.92Z" transform="translate(0.75 0.19)"></path>
      <path class="bdfedc30-9074-4896-b6d2-66600d45e1f4" d="M128.37,624.71a4.9,4.9,0,0,1,3.7-.85,1.93,1.93,0,0,1,1,.48l.07.09a.89.89,0,0,0-.27-.46,2,2,0,0,0-1-.48,4.9,4.9,0,0,0-3.7.85,3.43,3.43,0,0,0-.67.63l.4.14A5.05,5.05,0,0,1,128.37,624.71Z" transform="translate(0.75 0.19)"></path>
      <path class="bdfedc30-9074-4896-b6d2-66600d45e1f4" d="M117.8,611.56c-.27.07-.41.14-.69.23-.55.17-1.16.4-1.71.57a9.66,9.66,0,0,0-2.22,1c-.39.36-.57.63-.19,1.11-.06-.27.11-.48.39-.74a9.08,9.08,0,0,1,2.22-1c.55-.17,1.16-.4,1.7-.57.29-.09.42-.16.7-.23.74-.21,1.09.06,1.23-.08s0-.12,0-.12l-.22-.21A3.08,3.08,0,0,0,117.8,611.56Z" transform="translate(0.75 0.19)"></path>
      <path class="bdfedc30-9074-4896-b6d2-66600d45e1f4" d="M162.9,650c-.07.16-.26.32-.37.28-.7-.25-1.63,1-2.66,1.89-.59.54-1.66,1.63-2.63,1.66a3.29,3.29,0,0,1,.65.28,7,7,0,0,0,2.18-1.57c1-.93,2-2.14,2.66-1.89.11,0,.29-.12.37-.28a.67.67,0,0,0-.18-.73A.45.45,0,0,1,162.9,650Z" transform="translate(0.75 0.19)"></path>
      <path class="a47c0d64-a6ed-4152-969d-e1e0b1bcf281" d="M175.07,660.65a1.87,1.87,0,0,1,.52.32,3.36,3.36,0,0,1,.81,1.65,2,2,0,0,1-.05.55,2.09,2.09,0,0,0,.15-.94,2,2,0,0,0-.16-.69,2,2,0,0,0-.36-.41A2,2,0,0,0,175.07,660.65Z" transform="translate(0.75 0.19)"></path>
      <path class="a47c0d64-a6ed-4152-969d-e1e0b1bcf281" d="M174.51,664.24l0,0h-.06Z" transform="translate(0.75 0.19)"></path>
      <path class="bdfedc30-9074-4896-b6d2-66600d45e1f4" d="M174.51,664.24l0,0h-.06Z" transform="translate(0.75 0.19)"></path>
      <path class="a47c0d64-a6ed-4152-969d-e1e0b1bcf281" d="M174.54,663.55l.07-.08a.66.66,0,0,0,.15-.36.52.52,0,0,0-.13-.4.73.73,0,0,1-.09-.08l-.28-.24.1-.11h0l-.28-.25.57-.64s.54.41.58.64v.06a.86.86,0,0,1,.2.3.46.46,0,0,1-.1.34l.11-.1a.59.59,0,0,0,.17-.53,2.3,2.3,0,0,0-.27-.28l-.61-.55-1.47,1.65h0l.62-.69.24.22a1.15,1.15,0,0,1,.3.36.53.53,0,0,1,0,.13.78.78,0,0,1,.18.24A.42.42,0,0,1,174.54,663.55Z" transform="translate(0.75 0.19)"></path>
      <path class="a47c0d64-a6ed-4152-969d-e1e0b1bcf281" d="M174.32,663.85h0Z" transform="translate(0.75 0.19)"></path>
      <path class="bdfedc30-9074-4896-b6d2-66600d45e1f4" d="M174.32,663.85h0Z" transform="translate(0.75 0.19)"></path>
      <path class="a47c0d64-a6ed-4152-969d-e1e0b1bcf281" d="M173.85,664.43a1.87,1.87,0,0,1-.52-.32,1.76,1.76,0,0,1-.48-.69,1.79,1.79,0,0,1-.33-1,1.73,1.73,0,0,1,0-.51,2.24,2.24,0,0,0-.15.9,2.49,2.49,0,0,0,.16.69,2.17,2.17,0,0,0,1.27.89Z" transform="translate(0.75 0.19)"></path>
    </g>
    <polygon class="b824426c-83e6-458b-97b5-e635720ba113" points="33.52 488.49 0.22 488.49 0.22 998.39 26.52 942.29 33.52 488.49"></polygon>
    <path class="ee722184-d949-451b-b3a3-e875335100b1" d="M219.14,746.82S48.7,917.76,37.73,928.65c-14.73,14.63-38.27,71-38.27,71s23.72-54.73,35.69-69C43.67,920.59,219.14,746.82,219.14,746.82Z" transform="translate(0.75 0.19)"></path>
    <path class="e962369d-7560-4a33-bae0-09f22d13a933" d="M491.55,747S662.45,918.21,673,928.81c14.62,14.74,38.85,71,38.85,71s-23.31-51.5-34.16-66.44C667.05,918.79,491.55,747,491.55,747Z" transform="translate(0.75 0.19)"></path>
    <rect class="b8709f4e-cdca-4222-8f6e-d13813ee40c9" x="0.02" y="832.02" width="712.54" height="168.1"></rect>
    <path class="b54dc5f8-644d-4c68-90fb-27fe3f90929b" d="M-.5,998l30.3-47.4a76.34,76.34,0,0,1,14.3-19.9l175.8-175.8c17-19,47.8-18.9,62.2-18.9-50.9-2.9-57.6,7.1-67.2,15.9l-176,175.8a75.47,75.47,0,0,0-14,19.9Z" transform="translate(0.75 0.19)"></path>
    <path class="ae9de505-5ad5-4e39-9a6c-7151186c9d9d" d="M686.2,947.59a76.34,76.34,0,0,0-14.3-19.9L496.1,751.89a53.87,53.87,0,0,0-22.85-13.65c-11-3.44-19.9-1.92-44.35-2.25,14.4,0,45.2-.1,62.2,18.9l175.8,175.8a76.34,76.34,0,0,1,14.3,19.9L711.5,998Z" transform="translate(0.75 0.19)"></path>
    <path class="a6f59b60-963f-4ae0-be14-b2d0b1680093" d="M-.75,999.79S14.33,968,17.87,960.91c5.26-10.48,10.29-20.52,13.39-24.35,4.7-6.95,17-18.23,23.81-25.09l14.8-14.8L-.55,867.88Z" transform="translate(0.75 0.19)"></path>
    <path class="a6ab61ce-08a3-4ded-a3d5-55be50beca09" d="M711.9,999.79S700,974.7,698.13,971.14c-5.4-10.27-10.62-22.84-18.76-34.92-4.39-6.39-19.55-20.76-34-35.23-17.1-17.09-33-32.9-33-32.9l99.26-47.8Z" transform="translate(0.75 0.19)"></path>
    <path class="e4e025ac-d122-4a5d-8f10-077277d8517f" d="M-.69,999.84l.15-.15c11.59-7,79.52-10.9,94.5-10.9H615.41c14.39,0,83.6,3.6,94.89,10.1l1.5.9Z" transform="translate(0.75 0.19)"></path>
    <path class="e48a77cf-5f80-4ad3-9b2a-c3bbc4ab4f93" d="M678.5,488.29h33.3v511.5s-11.25-24.59-17.94-37.19c-2.64-5-9.28-18.33-9.28-18.33Z" transform="translate(0.75 0.19)"></path>
    <path class="fa8cf3f3-e665-484b-a6de-b2baf065515d" d="M282.1,736s-.9-31.6-16.1-41.4l-206.2-185c-5.1-4.26-10.42-7.15-18.8-9.7L.1,488l43.9,9.9a41.85,41.85,0,0,1,18.8,9.7l206.2,185a39.49,39.49,0,0,1,13.1,29.3V736Z" transform="translate(0.75 0.19)"></path>
    <path class="a1b952a7-5b41-4445-8f3d-358808d4ed8c" d="M282.1,736" transform="translate(0.75 0.19)"></path>
  </g>
</svg>
